<?xml version="1.0" encoding="UTF-8" standalone="no"?>
<!DOCTYPE svg PUBLIC "-//W3C//DTD SVG 1.1//EN" "http://www.w3.org/Graphics/SVG/1.1/DTD/svg11.dtd">
<svg width="100%" height="100%" viewBox="0 0 33 34" version="1.1" xmlns="http://www.w3.org/2000/svg" xmlns:xlink="http://www.w3.org/1999/xlink" xml:space="preserve" xmlns:serif="http://www.serif.com/" style="fill-rule:evenodd;clip-rule:evenodd;stroke-linejoin:round;stroke-miterlimit:2;">
    <g transform="matrix(1,0,0,1,-974.687,-76.8445)">
        <g transform="matrix(1,0,0,1,71.2585,0)">
            <g transform="matrix(0.545278,0,0,0.545278,364.02,45.6994)">
                <g transform="matrix(1.27559,0,0,1.27559,1038.17,101.612)">
                    <path d="M0,-0.782C0.275,-0.972 0.878,-0.86 0.878,-0.86C0.878,-0.86 0.747,-0.414 1.192,-0.305C1.617,-0.201 1.93,-0.558 1.9,-0.819C1.878,-1.013 3.345,-0.611 3.502,-0.431C3.595,-0.326 2.52,-0.536 2.303,-0.439C2.085,-0.342 1.91,0.231 1.11,0.083C0.546,-0.023 0.53,-0.487 0.265,-0.487C-0.001,-0.487 -0.275,-0.592 0,-0.782" style="fill:rgb(198,211,215);fill-rule:nonzero;"/>
                </g>
                <g transform="matrix(1.27559,0,0,1.27559,1035.25,56.5945)">
                    <path d="M0,39.013C0,39.013 4.321,34.94 10.111,37.782C10.111,37.782 11.125,35.474 6.363,34.851C6.363,34.851 5.215,32.72 1.775,32.457C-1.665,32.195 -6.408,32.232 -9.139,27.548C-11.872,22.865 -12.411,19.974 -13.81,17.98C-15.209,15.985 -19.604,12.054 -25.114,8.254C-30.624,4.454 -34.487,1.737 -34.487,1.737C-34.487,1.737 -34.945,1.454 -34.931,2.146C-34.917,2.837 -35.144,7.316 -32.817,9.132C-30.49,10.947 -26.856,12.843 -18.306,15.622C-18.306,15.622 -29.52,12.738 -32.283,10.505C-35.045,8.272 -35.637,6.634 -35.886,4.909C-36.134,3.182 -36.057,1.77 -36.065,1.397C-36.072,1.024 -35.428,0 -34.35,0.589C-33.273,1.18 -21.344,8.975 -19.346,10.319C-17.348,11.661 -14.115,13.512 -12.066,17.331C-10.017,21.15 -10.291,23.392 -7.738,27.12C-5.184,30.848 -3.309,31.422 -0.401,31.682C2.507,31.941 5.214,31.593 6.843,34.408C6.843,34.408 12.139,35.019 10.495,38.586C10.495,38.586 5.716,35.504 0,39.013" style="fill:rgb(198,211,215);fill-rule:nonzero;"/>
                </g>
                <g transform="matrix(1.27559,0,0,1.27559,1016.61,75.7151)">
                    <path d="M0,4.018C0,4.018 -16.923,-1.891 -17.882,-1.951C-18.843,-2.011 -20.097,-2.172 -19.774,-0.714C-19.452,0.744 -18.091,4.737 -12.005,5.464C-5.919,6.19 -1.21,6.013 -1.21,6.013C-1.21,6.013 -10.926,4.856 -11.7,4.765C-12.474,4.674 -15.87,3.945 -17.322,2.005C-18.773,0.065 -19.068,-1.367 -18.533,-1.245C-17.999,-1.123 0,4.018 0,4.018" style="fill:rgb(198,211,215);fill-rule:nonzero;"/>
                </g>
                <g transform="matrix(1.27559,0,0,1.27559,1016.89,91.0336)">
                    <path d="M0,-4.743C0,-4.743 -14.289,-5.028 -15.032,-4.835C-15.774,-4.643 -16.764,-4.454 -16.159,-3.429C-15.553,-2.405 -13.532,0.285 -8.74,-0.673C-3.948,-1.63 -0.423,-2.931 -0.423,-2.931C-0.423,-2.931 -8.073,-1.401 -8.682,-1.278C-9.291,-1.155 -12.046,-0.866 -13.627,-1.976C-15.207,-3.087 -15.786,-4.1 -15.351,-4.139C-14.914,-4.179 0,-4.743 0,-4.743" style="fill:rgb(198,211,215);fill-rule:nonzero;"/>
                </g>
                <g transform="matrix(1.27559,0,0,1.27559,1017.85,99.1923)">
                    <path d="M0,-8.854C0,-8.854 -12.059,-4.186 -12.614,-3.77C-13.169,-3.355 -13.933,-2.855 -13.074,-2.206C-12.215,-1.556 -9.601,0 -5.918,-2.446C-2.235,-4.893 0.269,-7.192 0.269,-7.192C0.269,-7.192 -5.61,-3.285 -6.077,-2.973C-6.546,-2.66 -8.752,-1.472 -10.456,-1.859C-12.16,-2.246 -12.993,-2.895 -12.642,-3.078C-12.29,-3.261 0,-8.854 0,-8.854" style="fill:rgb(198,211,215);fill-rule:nonzero;"/>
                </g>
                <g transform="matrix(1.27559,0,0,1.27559,1019.14,104.391)">
                    <path d="M0,-9.944C0,-9.944 -8.318,-2.641 -8.642,-2.143C-8.966,-1.646 -9.433,-1.02 -8.551,-0.75C-7.669,-0.481 -5.11,0 -2.87,-3.051C-0.63,-6.102 0.705,-8.687 0.705,-8.687C0.705,-8.687 -2.869,-3.816 -3.153,-3.427C-3.437,-3.038 -4.86,-1.433 -6.345,-1.243C-7.829,-1.052 -8.688,-1.328 -8.46,-1.579C-8.232,-1.83 0,-9.944 0,-9.944" style="fill:rgb(198,211,215);fill-rule:nonzero;"/>
                </g>
                <g transform="matrix(1.27559,0,0,1.27559,1020.36,107.128)">
                    <path d="M0,-9.887C0,-9.887 -4.805,-1.632 -4.935,-1.136C-5.063,-0.64 -5.274,0 -4.479,-0.021C-3.683,-0.042 -1.457,-0.35 -0.46,-3.46C0.537,-6.57 0.921,-9.052 0.921,-9.052C0.921,-9.052 -0.668,-4.086 -0.795,-3.691C-0.921,-3.294 -1.081,-2.607 -2.243,-2.043C-3.406,-1.481 -4.184,-1.472 -4.066,-1.738C-3.948,-2.006 0,-9.887 0,-9.887" style="fill:rgb(198,211,215);fill-rule:nonzero;"/>
                </g>
                <g transform="matrix(1.27559,0,0,1.27559,1039.1,119.333)">
                    <path d="M0,-12.833C0,-12.833 -5.677,-12.24 -11.273,-9.094C-14.76,-7.132 -17.498,-4.267 -19.386,0C-19.386,0 -17.708,-12.66 0,-12.833" style="fill:rgb(198,211,215);fill-rule:nonzero;"/>
                </g>
            </g>
        </g>
    </g>
</svg>
