<?xml version="1.0" encoding="UTF-8" standalone="no"?><!DOCTYPE svg PUBLIC "-//W3C//DTD SVG 1.1//EN" "http://www.w3.org/Graphics/SVG/1.1/DTD/svg11.dtd"><svg width="100%" height="100%" viewBox="0 0 256 277" version="1.1" xmlns="http://www.w3.org/2000/svg" xmlns:xlink="http://www.w3.org/1999/xlink" xml:space="preserve" xmlns:serif="http://www.serif.com/" style="fill-rule:evenodd;clip-rule:evenodd;stroke-linejoin:round;stroke-miterlimit:2;"><g><path d="M14.802,276.722l-3.225,0l-0,-7.769l-8.335,-0l-0,7.769l-3.242,0l0,-17.513l3.242,-0l-0,7.293l8.335,-0l-0,-7.293l3.225,-0l-0,17.513Z" style="fill:#fff;fill-rule:nonzero;"/><path d="M28.187,269.988l-3.608,0l-0,6.731l-3.241,0l-0,-17.505l6.555,0c2.15,0 3.812,0.452 4.98,1.36c1.169,0.904 1.751,2.215 1.751,3.934c0,1.172 -0.297,2.154 -0.9,2.94c-0.598,0.794 -1.441,1.4 -2.516,1.828l4.19,7.289l-0,0.154l-3.473,0l-3.738,-6.731Zm-3.608,-2.455l3.327,0c1.091,0 1.946,-0.257 2.561,-0.774c0.615,-0.521 0.92,-1.225 0.92,-2.125c0,-0.937 -0.281,-1.662 -0.851,-2.175c-0.566,-0.513 -1.413,-0.777 -2.541,-0.794l-3.416,0l-0,5.868Z" style="fill:#fff;fill-rule:nonzero;"/><path d="M60.401,271.022c-0.188,1.869 -0.921,3.323 -2.203,4.373c-1.279,1.042 -2.981,1.568 -5.106,1.568c-1.483,-0 -2.794,-0.33 -3.926,-0.994c-1.128,-0.659 -1.999,-1.6 -2.614,-2.822c-0.619,-1.213 -0.936,-2.63 -0.961,-4.243l0,-1.636c0,-1.654 0.31,-3.103 0.933,-4.366c0.623,-1.258 1.518,-2.227 2.683,-2.911c1.16,-0.676 2.508,-1.018 4.035,-1.018c2.057,0 3.714,0.521 4.972,1.568c1.25,1.042 1.983,2.528 2.187,4.442l-3.225,0c-0.155,-1.254 -0.546,-2.166 -1.173,-2.724c-0.627,-0.554 -1.547,-0.835 -2.761,-0.835c-1.405,0 -2.488,0.485 -3.241,1.45c-0.757,0.969 -1.144,2.386 -1.16,4.259l-0,1.552c-0,1.893 0.362,3.334 1.083,4.332c0.72,0.994 1.775,1.494 3.168,1.494c1.27,0 2.227,-0.272 2.866,-0.81c0.639,-0.533 1.043,-1.429 1.218,-2.679l3.225,-0Z" style="fill:#fff;fill-rule:nonzero;"/><path d="M82.402,268.424c-0,1.718 -0.318,3.221 -0.945,4.516c-0.635,1.295 -1.539,2.288 -2.708,2.98c-1.176,0.697 -2.528,1.043 -4.051,1.043c-1.515,-0 -2.863,-0.346 -4.043,-1.043c-1.181,-0.692 -2.093,-1.677 -2.741,-2.964c-0.643,-1.283 -0.969,-2.761 -0.977,-4.438l-0,-0.986c-0,-1.706 0.326,-3.213 0.969,-4.52c0.643,-1.307 1.551,-2.308 2.724,-3.001c1.177,-0.692 2.521,-1.042 4.039,-1.042c1.519,-0 2.867,0.346 4.04,1.03c1.172,0.688 2.081,1.674 2.72,2.96c0.639,1.287 0.961,2.782 0.973,4.492l-0,0.973Zm-3.237,-0.916c-0,-1.938 -0.391,-3.429 -1.173,-4.463c-0.782,-1.034 -1.889,-1.551 -3.323,-1.551c-1.4,-0 -2.496,0.517 -3.282,1.551c-0.794,1.03 -1.193,2.484 -1.209,4.369l0,1.01c0,1.926 0.395,3.412 1.193,4.459c0.798,1.05 1.91,1.576 3.327,1.576c1.429,-0 2.533,-0.509 3.306,-1.536c0.77,-1.03 1.161,-2.524 1.161,-4.499l-0,-0.916Z" style="fill:#fff;fill-rule:nonzero;"/><path d="M103.725,276.722l-3.241,0l-8.307,-12.423l0,12.423l-3.237,0l-0,-17.513l3.237,-0l8.331,12.472l0,-12.472l3.217,-0l-0,17.513Z" style="fill:#fff;fill-rule:nonzero;"/><path d="M120.951,272.212c0,-0.77 -0.289,-1.36 -0.863,-1.779c-0.574,-0.42 -1.617,-0.839 -3.119,-1.263c-1.503,-0.427 -2.696,-0.895 -3.583,-1.421c-1.698,-1.001 -2.545,-2.309 -2.545,-3.917c-0,-1.413 0.61,-2.577 1.836,-3.49c1.222,-0.916 2.814,-1.372 4.768,-1.372c1.299,0 2.452,0.224 3.465,0.676c1.018,0.448 1.817,1.087 2.399,1.918c0.578,0.831 0.867,1.751 0.867,2.761l-3.225,-0c0,-0.908 -0.305,-1.621 -0.912,-2.13c-0.615,-0.513 -1.486,-0.769 -2.622,-0.769c-1.055,-0 -1.877,0.211 -2.464,0.631c-0.582,0.427 -0.879,1.018 -0.879,1.775c-0,0.639 0.317,1.169 0.953,1.6c0.627,0.424 1.669,0.839 3.123,1.242c1.445,0.407 2.614,0.868 3.493,1.385c0.876,0.517 1.523,1.107 1.93,1.779c0.416,0.668 0.619,1.454 0.619,2.35c0,1.457 -0.594,2.618 -1.787,3.481c-1.189,0.863 -2.81,1.295 -4.85,1.295c-1.344,-0 -2.581,-0.236 -3.713,-0.704c-1.132,-0.473 -2.012,-1.116 -2.639,-1.943c-0.627,-0.826 -0.941,-1.787 -0.941,-2.887l3.242,0c-0,0.994 0.346,1.763 1.046,2.309c0.7,0.546 1.702,0.818 3.005,0.818c1.132,0 1.979,-0.215 2.545,-0.643c0.566,-0.427 0.851,-0.993 0.851,-1.702" style="fill:#fff;fill-rule:nonzero;"/><path d="M144.655,259.212l0,11.702c0,1.861 -0.635,3.335 -1.901,4.418c-1.267,1.088 -2.956,1.629 -5.062,1.629c-2.133,0 -3.827,-0.533 -5.081,-1.604c-1.259,-1.071 -1.882,-2.553 -1.882,-4.455l0,-11.69l3.225,-0l0,11.694c0,1.169 0.314,2.061 0.945,2.68c0.635,0.614 1.564,0.92 2.793,0.92c2.488,-0 3.738,-1.23 3.738,-3.693l0,-11.601l3.225,-0Z" style="fill:#fff;fill-rule:nonzero;"/><path d="M154.431,274.269l8.461,-0l0,2.455l-11.702,0l-0,-17.513l3.241,-0l-0,15.058Z" style="fill:#fff;fill-rule:nonzero;"/><path d="M179.517,261.665l-5.81,-0l-0,15.058l-3.213,-0l0,-15.058l-5.762,-0l0,-2.455l14.785,-0l0,2.455Z" style="fill:#fff;fill-rule:nonzero;"/><path d="M192.571,272.647l-7.216,-0l-1.514,4.076l-3.364,-0l7.04,-17.514l2.904,0l7.052,17.514l-3.375,-0l-1.527,-4.076Zm-6.312,-2.456l5.404,0l-2.7,-7.264l-2.704,7.264Z" style="fill:#fff;fill-rule:nonzero;"/><path d="M217.624,276.722l-3.241,0l-8.307,-12.423l0,12.423l-3.237,0l-0,-17.513l3.237,-0l8.335,12.472l0,-12.472l3.213,-0l-0,17.513Z" style="fill:#fff;fill-rule:nonzero;"/><path d="M237.772,261.665l-5.815,-0l0,15.058l-3.208,-0l-0,-15.058l-5.762,-0l0,-2.455l14.785,-0l0,2.455Z" style="fill:#fff;fill-rule:nonzero;"/><path d="M252.061,272.212c-0,-0.77 -0.285,-1.36 -0.863,-1.779c-0.574,-0.42 -1.617,-0.839 -3.115,-1.263c-1.503,-0.427 -2.7,-0.895 -3.588,-1.421c-1.698,-1.001 -2.545,-2.309 -2.545,-3.917c0,-1.413 0.611,-2.577 1.837,-3.49c1.221,-0.916 2.813,-1.372 4.768,-1.372c1.299,0 2.455,0.224 3.469,0.676c1.018,0.448 1.812,1.087 2.395,1.918c0.578,0.831 0.871,1.751 0.871,2.761l-3.229,-0c-0,-0.908 -0.301,-1.621 -0.916,-2.13c-0.611,-0.513 -1.482,-0.769 -2.614,-0.769c-1.059,-0 -1.882,0.211 -2.468,0.631c-0.582,0.427 -0.875,1.018 -0.875,1.775c-0,0.639 0.313,1.169 0.948,1.6c0.627,0.424 1.674,0.839 3.123,1.242c1.45,0.407 2.615,0.868 3.494,1.385c0.88,0.517 1.523,1.107 1.934,1.779c0.407,0.668 0.615,1.454 0.615,2.35c0,1.457 -0.594,2.618 -1.783,3.481c-1.193,0.863 -2.81,1.295 -4.854,1.295c-1.344,-0 -2.582,-0.236 -3.718,-0.704c-1.128,-0.473 -2.007,-1.116 -2.634,-1.943c-0.627,-0.826 -0.941,-1.787 -0.941,-2.887l3.241,0c0,0.994 0.351,1.763 1.047,2.309c0.704,0.546 1.706,0.818 3.005,0.818c1.132,0 1.979,-0.215 2.545,-0.643c0.566,-0.427 0.851,-0.993 0.851,-1.702" style="fill:#fff;fill-rule:nonzero;"/><path d="M35.303,214.453l-27.066,-0l0,22.135l31.688,-0l-2.883,6.731l-37.042,-0l-0,-62.451l39.249,-0l0,6.735l-31.012,-0l0,20.115l27.066,-0l0,6.735Z" style="fill:#fff;fill-rule:nonzero;"/><path d="M87.677,226.978l-26.162,0l-5.88,16.341l-8.494,-0l23.849,-62.451l7.207,-0l23.89,62.451l-8.449,-0l-5.961,-16.341Zm-23.678,-6.735l21.235,0l-10.64,-29.208l-10.595,29.208Z" style="fill:#fff;fill-rule:nonzero;"/><path d="M155.259,235.127c-2.117,3.033 -5.07,5.297 -8.856,6.8c-3.791,1.498 -8.201,2.248 -13.234,2.248c-5.09,-0 -9.606,-1.189 -13.551,-3.58c-3.946,-2.386 -7,-5.782 -9.162,-10.184c-2.158,-4.409 -3.266,-9.512 -3.323,-15.314l0,-5.448c0,-9.41 2.195,-16.699 6.584,-21.879c4.39,-5.171 10.559,-7.761 18.507,-7.761c6.523,0 11.768,1.67 15.742,4.997c3.974,3.33 6.405,8.058 7.293,14.174l-8.237,-0c-1.544,-8.286 -6.463,-12.436 -14.753,-12.436c-5.521,0 -9.703,1.939 -12.546,5.819c-2.846,3.877 -4.283,9.492 -4.312,16.846l0,5.11c0,7.012 1.605,12.586 4.805,16.723c3.201,4.133 7.537,6.202 12.998,6.202c3.086,-0 5.79,-0.342 8.103,-1.026c2.317,-0.685 4.235,-1.845 5.749,-3.47l0,-13.991l-14.455,0l0,-6.735l22.648,0l0,22.905Z" style="fill:#fff;fill-rule:nonzero;"/><path d="M175.905,236.585l29.595,0l-0,6.735l-37.873,0l0,-62.451l8.278,0l0,55.716Z" style="fill:#fff;fill-rule:nonzero;"/><path d="M250.927,214.453l-27.066,-0l0,22.135l31.44,-0l-0,6.731l-39.673,-0l-0,-62.451l39.241,-0l-0,6.735l-31.008,-0l0,20.115l27.066,-0l0,6.735Z" style="fill:#fff;fill-rule:nonzero;"/><path d="M169.648,138.848c1.12,-0.774 3.575,-0.318 3.575,-0.318c0,0 -0.533,1.816 1.279,2.26c1.731,0.423 3.005,-1.03 2.883,-2.093c-0.09,-0.79 5.884,0.847 6.523,1.58c0.379,0.427 -3.998,-0.428 -4.882,-0.033c-0.888,0.395 -1.6,2.729 -4.858,2.126c-2.296,-0.432 -2.362,-2.321 -3.441,-2.321c-1.083,-0 -2.198,-0.428 -1.079,-1.201" style="fill:#fff;fill-rule:nonzero;"/><path d="M160.331,157.187c0,-0 17.595,-16.585 41.171,-5.013c0,0 4.129,-9.398 -15.261,-11.935c-0,0 -4.675,-8.677 -18.682,-9.748c-14.007,-1.067 -33.32,-0.916 -44.441,-19.989c-11.128,-19.068 -13.323,-30.84 -19.02,-38.96c-5.696,-8.123 -23.592,-24.13 -46.029,-39.603c-22.436,-15.473 -38.166,-26.537 -38.166,-26.537c0,0 -1.864,-1.152 -1.807,1.666c0.057,2.813 -0.868,21.051 8.608,28.446c9.475,7.391 24.272,15.111 59.087,26.427c0,-0 -45.662,-11.744 -56.913,-20.836c-11.247,-9.093 -13.657,-15.763 -14.671,-22.787c-1.01,-7.032 -0.696,-12.781 -0.729,-14.3c-0.028,-1.519 2.594,-5.689 6.983,-3.29c4.386,2.406 52.96,34.147 61.095,39.619c8.136,5.465 21.3,13.002 29.644,28.553c8.343,15.55 7.227,24.679 17.623,39.86c10.4,15.18 18.034,17.517 29.876,18.576c11.841,1.054 22.863,-0.363 29.496,11.1c0,-0 21.565,2.488 14.871,17.012c0,0 -19.46,-12.55 -42.735,1.739" style="fill:#fff;fill-rule:nonzero;"/><path d="M100.823,75.727c-0,-0 -68.909,-24.061 -72.814,-24.306c-3.913,-0.244 -9.019,-0.9 -7.704,5.037c1.311,5.937 6.853,22.196 31.635,25.157c24.781,2.956 43.956,2.235 43.956,2.235c-0,0 -39.563,-4.711 -42.714,-5.082c-3.152,-0.37 -16.98,-3.339 -22.893,-11.238c-5.908,-7.9 -7.109,-13.731 -4.931,-13.234c2.175,0.497 75.465,21.431 75.465,21.431" style="fill:#fff;fill-rule:nonzero;"/><path d="M101.739,88.952c0,-0 -58.183,-1.161 -61.209,-0.375c-3.021,0.782 -7.052,1.552 -4.589,5.725c2.468,4.17 10.697,15.123 30.21,11.222c19.512,-3.896 33.866,-9.194 33.866,-9.194c-0,0 -31.15,6.23 -33.63,6.731c-2.48,0.501 -13.698,1.678 -20.136,-2.842c-6.433,-4.524 -8.791,-8.649 -7.02,-8.808c1.78,-0.163 62.508,-2.459 62.508,-2.459" style="fill:#fff;fill-rule:nonzero;"/><path d="M104.798,98.256c-0,0 -49.103,19.008 -51.363,20.702c-2.26,1.689 -5.371,3.725 -1.873,6.368c3.498,2.647 14.141,8.983 29.138,-0.977c14.997,-9.964 25.193,-19.325 25.193,-19.325c0,-0 -23.939,15.909 -25.84,17.179c-1.91,1.274 -10.892,6.112 -17.831,4.536c-6.939,-1.576 -10.33,-4.218 -8.901,-4.964c1.433,-0.745 51.477,-23.519 51.477,-23.519" style="fill:#fff;fill-rule:nonzero;"/><path d="M108.92,110.414c0,-0 -33.87,29.737 -35.189,31.765c-1.319,2.023 -3.221,4.572 0.37,5.672c3.592,1.095 14.012,3.054 23.133,-9.37c9.121,-12.423 14.557,-22.949 14.557,-22.949c-0,-0 -14.553,19.834 -15.709,21.418c-1.157,1.584 -6.951,8.12 -12.998,8.893c-6.043,0.778 -9.54,-0.346 -8.612,-1.368c0.928,-1.022 34.448,-34.061 34.448,-34.061" style="fill:#fff;fill-rule:nonzero;"/><path d="M112.805,119.382c-0,-0 -19.566,33.614 -20.095,35.633c-0.521,2.02 -1.38,4.626 1.857,4.54c3.241,-0.085 12.305,-1.339 16.365,-14.003c4.06,-12.664 5.623,-22.77 5.623,-22.77c0,-0 -6.47,20.221 -6.987,21.829c-0.513,1.617 -1.165,4.414 -5.896,6.711c-4.736,2.288 -7.904,2.325 -7.423,1.242c0.48,-1.091 16.556,-33.182 16.556,-33.182" style="fill:#fff;fill-rule:nonzero;"/><path d="M172.641,146.347c-0,-0 -23.116,2.414 -45.903,15.224c-14.199,7.989 -25.347,19.655 -33.035,37.03c-0,0 6.832,-51.55 78.938,-52.254" style="fill:#db8c00;fill-rule:nonzero;"/></g></svg>