<?xml version="1.0" encoding="UTF-8" standalone="no"?>
<!DOCTYPE svg PUBLIC "-//W3C//DTD SVG 1.1//EN" "http://www.w3.org/Graphics/SVG/1.1/DTD/svg11.dtd">
<svg width="100%" height="100%" viewBox="0 0 140 152" version="1.1" xmlns="http://www.w3.org/2000/svg" xmlns:xlink="http://www.w3.org/1999/xlink" xml:space="preserve" xmlns:serif="http://www.serif.com/" style="fill-rule:evenodd;clip-rule:evenodd;stroke-linejoin:round;stroke-miterlimit:2;">
    <g transform="matrix(3.19217,0,0,3.19217,-3104.03,-245.301)">
        <g transform="matrix(1,0,0,1,71.2585,0)">
            <g transform="matrix(0.545278,0,0,0.545278,364.02,45.6994)">
                <g transform="matrix(1.27559,0,0,1.27559,989.659,138.319)">
                    <path d="M0,4.301L-0.792,4.301L-0.792,2.393L-2.839,2.393L-2.839,4.301L-3.635,4.301L-3.635,0L-2.839,0L-2.839,1.791L-0.792,1.791L-0.792,0L0,0L0,4.301Z" style="fill:rgb(198,211,215);fill-rule:nonzero;"/>
                </g>
                <g transform="matrix(1.27559,0,0,1.27559,993.852,140.43)">
                    <path d="M0,0.993L-0.886,0.993L-0.886,2.646L-1.682,2.646L-1.682,-1.653L-0.072,-1.653C0.456,-1.653 0.864,-1.542 1.151,-1.319C1.438,-1.097 1.581,-0.775 1.581,-0.353C1.581,-0.065 1.508,0.176 1.36,0.369C1.213,0.564 1.006,0.713 0.742,0.818L1.771,2.608L1.771,2.646L0.918,2.646L0,0.993ZM-0.886,0.39L-0.069,0.39C0.199,0.39 0.409,0.327 0.56,0.2C0.711,0.072 0.786,-0.101 0.786,-0.322C0.786,-0.552 0.717,-0.73 0.577,-0.856C0.438,-0.982 0.23,-1.047 -0.047,-1.051L-0.886,-1.051L-0.886,0.39Z" style="fill:rgb(198,211,215);fill-rule:nonzero;"/>
                </g>
                <g transform="matrix(1.27559,0,0,1.27559,1003.94,140.107)">
                    <path d="M0,1.5C-0.046,1.959 -0.226,2.316 -0.541,2.574C-0.855,2.83 -1.273,2.959 -1.795,2.959C-2.159,2.959 -2.481,2.878 -2.759,2.715C-3.036,2.553 -3.25,2.322 -3.401,2.022C-3.553,1.724 -3.631,1.376 -3.637,0.98L-3.637,0.578C-3.637,0.172 -3.561,-0.184 -3.408,-0.494C-3.255,-0.803 -3.035,-1.041 -2.749,-1.209C-2.464,-1.375 -2.133,-1.459 -1.758,-1.459C-1.253,-1.459 -0.846,-1.331 -0.537,-1.074C-0.23,-0.818 -0.05,-0.453 0,0.017L-0.792,0.017C-0.83,-0.291 -0.926,-0.515 -1.08,-0.652C-1.234,-0.788 -1.46,-0.857 -1.758,-0.857C-2.103,-0.857 -2.369,-0.738 -2.554,-0.501C-2.74,-0.263 -2.835,0.085 -2.839,0.545L-2.839,0.926C-2.839,1.391 -2.75,1.745 -2.573,1.99C-2.396,2.234 -2.137,2.357 -1.795,2.357C-1.483,2.357 -1.248,2.29 -1.091,2.158C-0.934,2.027 -0.835,1.807 -0.792,1.5L0,1.5Z" style="fill:rgb(198,211,215);fill-rule:nonzero;"/>
                </g>
                <g transform="matrix(1.27559,0,0,1.27559,1010.84,140.919)">
                    <path d="M0,0.225C0,0.647 -0.078,1.016 -0.232,1.334C-0.388,1.652 -0.61,1.896 -0.897,2.066C-1.186,2.237 -1.518,2.322 -1.892,2.322C-2.264,2.322 -2.595,2.237 -2.885,2.066C-3.175,1.896 -3.399,1.654 -3.558,1.338C-3.716,1.023 -3.796,0.66 -3.798,0.248L-3.798,0.006C-3.798,-0.413 -3.718,-0.783 -3.56,-1.104C-3.402,-1.425 -3.179,-1.671 -2.891,-1.841C-2.602,-2.011 -2.272,-2.097 -1.899,-2.097C-1.526,-2.097 -1.195,-2.012 -0.907,-1.844C-0.619,-1.675 -0.396,-1.433 -0.239,-1.117C-0.082,-0.801 -0.003,-0.434 0,-0.014L0,0.225ZM-0.795,-0C-0.795,-0.476 -0.891,-0.842 -1.083,-1.096C-1.275,-1.35 -1.547,-1.477 -1.899,-1.477C-2.243,-1.477 -2.512,-1.35 -2.705,-1.096C-2.9,-0.843 -2.998,-0.486 -3.002,-0.023L-3.002,0.225C-3.002,0.698 -2.905,1.063 -2.709,1.32C-2.513,1.578 -2.24,1.707 -1.892,1.707C-1.541,1.707 -1.27,1.582 -1.08,1.33C-0.891,1.077 -0.795,0.71 -0.795,0.225L-0.795,-0Z" style="fill:rgb(198,211,215);fill-rule:nonzero;"/>
                </g>
                <g transform="matrix(1.27559,0,0,1.27559,1017.52,138.319)">
                    <path d="M0,4.301L-0.796,4.301L-2.836,1.25L-2.836,4.301L-3.631,4.301L-3.631,0L-2.836,0L-0.79,3.063L-0.79,0L0,0L0,4.301Z" style="fill:rgb(198,211,215);fill-rule:nonzero;"/>
                </g>
                <g transform="matrix(1.27559,0,0,1.27559,1022.91,139.733)">
                    <path d="M0,2.085C0,1.896 -0.071,1.751 -0.212,1.648C-0.353,1.545 -0.609,1.442 -0.978,1.338C-1.347,1.233 -1.64,1.118 -1.858,0.989C-2.275,0.743 -2.483,0.422 -2.483,0.027C-2.483,-0.32 -2.333,-0.606 -2.032,-0.83C-1.732,-1.055 -1.341,-1.167 -0.861,-1.167C-0.542,-1.167 -0.259,-1.112 -0.01,-1.001C0.24,-0.891 0.436,-0.734 0.579,-0.53C0.721,-0.326 0.792,-0.1 0.792,0.148L0,0.148C0,-0.075 -0.075,-0.25 -0.224,-0.375C-0.375,-0.501 -0.589,-0.564 -0.868,-0.564C-1.127,-0.564 -1.329,-0.512 -1.473,-0.409C-1.616,-0.304 -1.689,-0.159 -1.689,0.027C-1.689,0.184 -1.611,0.314 -1.455,0.42C-1.301,0.524 -1.045,0.626 -0.688,0.725C-0.333,0.825 -0.046,0.938 0.17,1.065C0.385,1.192 0.544,1.337 0.644,1.502C0.746,1.666 0.796,1.859 0.796,2.079C0.796,2.437 0.65,2.722 0.357,2.934C0.065,3.146 -0.333,3.252 -0.834,3.252C-1.164,3.252 -1.468,3.194 -1.746,3.079C-2.024,2.963 -2.24,2.805 -2.394,2.602C-2.548,2.399 -2.625,2.163 -2.625,1.893L-1.829,1.893C-1.829,2.137 -1.744,2.326 -1.572,2.46C-1.4,2.594 -1.154,2.661 -0.834,2.661C-0.556,2.661 -0.348,2.608 -0.209,2.503C-0.07,2.398 0,2.259 0,2.085" style="fill:rgb(198,211,215);fill-rule:nonzero;"/>
                </g>
                <g transform="matrix(1.27559,0,0,1.27559,1030.34,143.88)">
                    <path d="M0,-4.359L0,-1.485C0,-1.028 -0.156,-0.666 -0.467,-0.4C-0.778,-0.133 -1.193,0 -1.71,0C-2.234,0 -2.65,-0.131 -2.958,-0.394C-3.267,-0.657 -3.42,-1.021 -3.42,-1.488L-3.42,-4.359L-2.628,-4.359L-2.628,-1.487C-2.628,-1.2 -2.551,-0.981 -2.396,-0.829C-2.24,-0.678 -2.012,-0.603 -1.71,-0.603C-1.099,-0.603 -0.792,-0.905 -0.792,-1.51L-0.792,-4.359L0,-4.359Z" style="fill:rgb(198,211,215);fill-rule:nonzero;"/>
                </g>
                <g transform="matrix(1.27559,0,0,1.27559,1033.4,139.089)">
                    <path d="M0,3.095L2.078,3.095L2.078,3.698L-0.796,3.698L-0.796,-0.603L0,-0.603L0,3.095Z" style="fill:rgb(198,211,215);fill-rule:nonzero;"/>
                </g>
                <g transform="matrix(1.27559,0,0,1.27559,1041.26,143.037)">
                    <path d="M0,-3.095L-1.427,-3.095L-1.427,0.603L-2.216,0.603L-2.216,-3.095L-3.631,-3.095L-3.631,-3.698L0,-3.698L0,-3.095Z" style="fill:rgb(198,211,215);fill-rule:nonzero;"/>
                </g>
                <g transform="matrix(1.27559,0,0,1.27559,1045.35,139.596)">
                    <path d="M0,2.299L-1.772,2.299L-2.144,3.3L-2.97,3.3L-1.241,-1.001L-0.528,-1.001L1.204,3.3L0.375,3.3L0,2.299ZM-1.55,1.696L-0.223,1.696L-0.886,-0.088L-1.55,1.696Z" style="fill:rgb(198,211,215);fill-rule:nonzero;"/>
                </g>
                <g transform="matrix(1.27559,0,0,1.27559,1053.2,138.319)">
                    <path d="M0,4.301L-0.796,4.301L-2.836,1.25L-2.836,4.301L-3.631,4.301L-3.631,0L-2.836,0L-0.789,3.063L-0.789,0L0,0L0,4.301Z" style="fill:rgb(198,211,215);fill-rule:nonzero;"/>
                </g>
                <g transform="matrix(1.27559,0,0,1.27559,1059.51,143.037)">
                    <path d="M0,-3.095L-1.428,-3.095L-1.428,0.603L-2.216,0.603L-2.216,-3.095L-3.631,-3.095L-3.631,-3.698L0,-3.698L0,-3.095Z" style="fill:rgb(198,211,215);fill-rule:nonzero;"/>
                </g>
                <g transform="matrix(1.27559,0,0,1.27559,1063.98,139.733)">
                    <path d="M0,2.085C0,1.896 -0.07,1.751 -0.212,1.648C-0.353,1.545 -0.609,1.442 -0.977,1.338C-1.346,1.233 -1.64,1.118 -1.858,0.989C-2.275,0.743 -2.483,0.422 -2.483,0.027C-2.483,-0.32 -2.333,-0.606 -2.032,-0.83C-1.732,-1.055 -1.341,-1.167 -0.861,-1.167C-0.542,-1.167 -0.258,-1.112 -0.009,-1.001C0.241,-0.891 0.436,-0.734 0.579,-0.53C0.721,-0.326 0.793,-0.1 0.793,0.148L0,0.148C0,-0.075 -0.074,-0.25 -0.225,-0.375C-0.375,-0.501 -0.589,-0.564 -0.867,-0.564C-1.127,-0.564 -1.329,-0.512 -1.473,-0.409C-1.616,-0.304 -1.688,-0.159 -1.688,0.027C-1.688,0.184 -1.611,0.314 -1.455,0.42C-1.301,0.524 -1.044,0.626 -0.688,0.725C-0.332,0.825 -0.046,0.938 0.17,1.065C0.386,1.192 0.544,1.337 0.645,1.502C0.745,1.666 0.796,1.859 0.796,2.079C0.796,2.437 0.65,2.722 0.358,2.934C0.065,3.146 -0.332,3.252 -0.834,3.252C-1.164,3.252 -1.468,3.194 -1.747,3.079C-2.024,2.963 -2.24,2.805 -2.394,2.602C-2.548,2.399 -2.625,2.163 -2.625,1.893L-1.829,1.893C-1.829,2.137 -1.743,2.326 -1.572,2.46C-1.399,2.594 -1.153,2.661 -0.834,2.661C-0.556,2.661 -0.348,2.608 -0.209,2.503C-0.07,2.398 0,2.259 0,2.085" style="fill:rgb(198,211,215);fill-rule:nonzero;"/>
                </g>
                <g transform="matrix(1.27559,0,0,1.27559,996.081,122.82)">
                    <path d="M0,1.159L-6.647,1.159L-6.647,6.595L1.135,6.595L0.427,8.248L-8.67,8.248L-8.67,-7.089L0.969,-7.089L0.969,-5.435L-6.647,-5.435L-6.647,-0.495L0,-0.495L0,1.159Z" style="fill:rgb(198,211,215);fill-rule:nonzero;"/>
                </g>
                <g transform="matrix(1.27559,0,0,1.27559,1012.49,118.897)">
                    <path d="M0,7.311L-6.425,7.311L-7.869,11.324L-9.955,11.324L-4.098,-4.013L-2.328,-4.013L3.539,11.324L1.464,11.324L0,7.311ZM-5.815,5.657L-0.6,5.657L-3.213,-1.516L-5.815,5.657Z" style="fill:rgb(198,211,215);fill-rule:nonzero;"/>
                </g>
                <g transform="matrix(1.27559,0,0,1.27559,1033.66,116.343)">
                    <path d="M0,11.314C-0.52,12.059 -1.245,12.615 -2.175,12.984C-3.106,13.352 -4.189,13.536 -5.425,13.536C-6.675,13.536 -7.784,13.244 -8.753,12.657C-9.722,12.071 -10.472,11.237 -11.003,10.156C-11.533,9.073 -11.805,7.82 -11.819,6.395L-11.819,5.057C-11.819,2.746 -11.28,0.956 -10.202,-0.316C-9.124,-1.586 -7.609,-2.222 -5.657,-2.222C-4.055,-2.222 -2.767,-1.812 -1.791,-0.995C-0.815,-0.177 -0.218,0.984 0,2.486L-2.023,2.486C-2.402,0.451 -3.61,-0.568 -5.646,-0.568C-7.002,-0.568 -8.029,-0.092 -8.727,0.861C-9.426,1.813 -9.779,3.192 -9.786,4.998L-9.786,6.253C-9.786,7.975 -9.392,9.344 -8.606,10.36C-7.82,11.375 -6.755,11.883 -5.414,11.883C-4.656,11.883 -3.992,11.799 -3.424,11.631C-2.855,11.463 -2.384,11.178 -2.012,10.779L-2.012,7.343L-5.562,7.343L-5.562,5.689L0,5.689L0,11.314Z" style="fill:rgb(198,211,215);fill-rule:nonzero;"/>
                </g>
                <g transform="matrix(1.27559,0,0,1.27559,1040.13,115.888)">
                    <path d="M0,12.029L7.268,12.029L7.268,13.683L-2.033,13.683L-2.033,-1.654L0,-1.654L0,12.029Z" style="fill:rgb(198,211,215);fill-rule:nonzero;"/>
                </g>
                <g transform="matrix(1.27559,0,0,1.27559,1063.63,122.82)">
                    <path d="M0,1.159L-6.647,1.159L-6.647,6.595L1.074,6.595L1.074,8.248L-8.669,8.248L-8.669,-7.089L0.968,-7.089L0.968,-5.435L-6.647,-5.435L-6.647,-0.495L0,-0.495L0,1.159Z" style="fill:rgb(198,211,215);fill-rule:nonzero;"/>
                </g>
                <g transform="matrix(1.27559,0,0,1.27559,1038.17,101.612)">
                    <path d="M0,-0.782C0.275,-0.972 0.878,-0.86 0.878,-0.86C0.878,-0.86 0.747,-0.414 1.192,-0.305C1.617,-0.201 1.93,-0.558 1.9,-0.819C1.878,-1.013 3.345,-0.611 3.502,-0.431C3.595,-0.326 2.52,-0.536 2.303,-0.439C2.085,-0.342 1.91,0.231 1.11,0.083C0.546,-0.023 0.53,-0.487 0.265,-0.487C-0.001,-0.487 -0.275,-0.592 0,-0.782" style="fill:rgb(198,211,215);fill-rule:nonzero;"/>
                </g>
                <g transform="matrix(1.27559,0,0,1.27559,1035.25,56.5945)">
                    <path d="M0,39.013C0,39.013 4.321,34.94 10.111,37.782C10.111,37.782 11.125,35.474 6.363,34.851C6.363,34.851 5.215,32.72 1.775,32.457C-1.665,32.195 -6.408,32.232 -9.139,27.548C-11.872,22.865 -12.411,19.974 -13.81,17.98C-15.209,15.985 -19.604,12.054 -25.114,8.254C-30.624,4.454 -34.487,1.737 -34.487,1.737C-34.487,1.737 -34.945,1.454 -34.931,2.146C-34.917,2.837 -35.144,7.316 -32.817,9.132C-30.49,10.947 -26.856,12.843 -18.306,15.622C-18.306,15.622 -29.52,12.738 -32.283,10.505C-35.045,8.272 -35.637,6.634 -35.886,4.909C-36.134,3.182 -36.057,1.77 -36.065,1.397C-36.072,1.024 -35.428,0 -34.35,0.589C-33.273,1.18 -21.344,8.975 -19.346,10.319C-17.348,11.661 -14.115,13.512 -12.066,17.331C-10.017,21.15 -10.291,23.392 -7.738,27.12C-5.184,30.848 -3.309,31.422 -0.401,31.682C2.507,31.941 5.214,31.593 6.843,34.408C6.843,34.408 12.139,35.019 10.495,38.586C10.495,38.586 5.716,35.504 0,39.013" style="fill:rgb(198,211,215);fill-rule:nonzero;"/>
                </g>
                <g transform="matrix(1.27559,0,0,1.27559,1016.61,75.7151)">
                    <path d="M0,4.018C0,4.018 -16.923,-1.891 -17.882,-1.951C-18.843,-2.011 -20.097,-2.172 -19.774,-0.714C-19.452,0.744 -18.091,4.737 -12.005,5.464C-5.919,6.19 -1.21,6.013 -1.21,6.013C-1.21,6.013 -10.926,4.856 -11.7,4.765C-12.474,4.674 -15.87,3.945 -17.322,2.005C-18.773,0.065 -19.068,-1.367 -18.533,-1.245C-17.999,-1.123 0,4.018 0,4.018" style="fill:rgb(198,211,215);fill-rule:nonzero;"/>
                </g>
                <g transform="matrix(1.27559,0,0,1.27559,1016.89,91.0336)">
                    <path d="M0,-4.743C0,-4.743 -14.289,-5.028 -15.032,-4.835C-15.774,-4.643 -16.764,-4.454 -16.159,-3.429C-15.553,-2.405 -13.532,0.285 -8.74,-0.673C-3.948,-1.63 -0.423,-2.931 -0.423,-2.931C-0.423,-2.931 -8.073,-1.401 -8.682,-1.278C-9.291,-1.155 -12.046,-0.866 -13.627,-1.976C-15.207,-3.087 -15.786,-4.1 -15.351,-4.139C-14.914,-4.179 0,-4.743 0,-4.743" style="fill:rgb(198,211,215);fill-rule:nonzero;"/>
                </g>
                <g transform="matrix(1.27559,0,0,1.27559,1017.85,99.1923)">
                    <path d="M0,-8.854C0,-8.854 -12.059,-4.186 -12.614,-3.77C-13.169,-3.355 -13.933,-2.855 -13.074,-2.206C-12.215,-1.556 -9.601,0 -5.918,-2.446C-2.235,-4.893 0.269,-7.192 0.269,-7.192C0.269,-7.192 -5.61,-3.285 -6.077,-2.973C-6.546,-2.66 -8.752,-1.472 -10.456,-1.859C-12.16,-2.246 -12.993,-2.895 -12.642,-3.078C-12.29,-3.261 0,-8.854 0,-8.854" style="fill:rgb(198,211,215);fill-rule:nonzero;"/>
                </g>
                <g transform="matrix(1.27559,0,0,1.27559,1019.14,104.391)">
                    <path d="M0,-9.944C0,-9.944 -8.318,-2.641 -8.642,-2.143C-8.966,-1.646 -9.433,-1.02 -8.551,-0.75C-7.669,-0.481 -5.11,0 -2.87,-3.051C-0.63,-6.102 0.705,-8.687 0.705,-8.687C0.705,-8.687 -2.869,-3.816 -3.153,-3.427C-3.437,-3.038 -4.86,-1.433 -6.345,-1.243C-7.829,-1.052 -8.688,-1.328 -8.46,-1.579C-8.232,-1.83 0,-9.944 0,-9.944" style="fill:rgb(198,211,215);fill-rule:nonzero;"/>
                </g>
                <g transform="matrix(1.27559,0,0,1.27559,1020.36,107.128)">
                    <path d="M0,-9.887C0,-9.887 -4.805,-1.632 -4.935,-1.136C-5.063,-0.64 -5.274,0 -4.479,-0.021C-3.683,-0.042 -1.457,-0.35 -0.46,-3.46C0.537,-6.57 0.921,-9.052 0.921,-9.052C0.921,-9.052 -0.668,-4.086 -0.795,-3.691C-0.921,-3.294 -1.081,-2.607 -2.243,-2.043C-3.406,-1.481 -4.184,-1.472 -4.066,-1.738C-3.948,-2.006 0,-9.887 0,-9.887" style="fill:rgb(198,211,215);fill-rule:nonzero;"/>
                </g>
                <g transform="matrix(1.27559,0,0,1.27559,1039.1,119.333)">
                    <path d="M0,-12.833C0,-12.833 -5.677,-12.24 -11.273,-9.094C-14.76,-7.132 -17.498,-4.267 -19.386,0C-19.386,0 -17.708,-12.66 0,-12.833" style="fill:rgb(198,211,215);fill-rule:nonzero;"/>
                </g>
            </g>
        </g>
    </g>
</svg>
