<?xml version="1.0" encoding="UTF-8" standalone="no"?><!DOCTYPE svg PUBLIC "-//W3C//DTD SVG 1.1//EN" "http://www.w3.org/Graphics/SVG/1.1/DTD/svg11.dtd"><svg width="100%" height="100%" viewBox="0 0 419 436" version="1.1" xmlns="http://www.w3.org/2000/svg" xmlns:xlink="http://www.w3.org/1999/xlink" xml:space="preserve" xmlns:serif="http://www.serif.com/" style="fill-rule:evenodd;clip-rule:evenodd;stroke-linejoin:round;stroke-miterlimit:2;"><g><path d="M341.841,303.996c2.443,-1.687 7.801,-0.692 7.801,-0.692c-0,-0 -1.164,3.967 2.792,4.933c3.775,0.924 6.556,-2.246 6.288,-4.567c-0.198,-1.721 12.838,1.85 14.234,3.45c0.826,0.93 -8.726,-0.937 -10.657,-0.076c-1.931,0.861 -3.49,5.957 -10.598,4.642c-5.008,-0.942 -5.154,-5.067 -7.504,-5.067c-2.367,0 -4.799,-0.93 -2.356,-2.623" style="fill:#db8c00;fill-rule:nonzero;stroke:#db8c00;stroke-width:2.08px;"/><path d="M321.512,344.016c-0,-0 38.391,-36.192 89.835,-10.942c0,0 9.004,-20.504 -33.301,-26.042c-0,0 -10.203,-18.928 -40.765,-21.266c-30.562,-2.327 -72.699,-2.001 -96.967,-43.615c-24.279,-41.608 -29.067,-67.295 -41.497,-85.007c-12.431,-17.724 -51.48,-52.649 -100.434,-86.415c-48.955,-33.761 -83.274,-57.901 -83.274,-57.901c-0,-0 -4.072,-2.513 -3.944,3.635c0.122,6.143 -1.896,45.936 18.783,62.066c20.673,16.13 52.956,32.976 128.924,57.662c0,0 -99.637,-25.623 -124.184,-45.458c-24.535,-19.842 -29.799,-34.395 -32.01,-49.723c-2.204,-15.339 -1.518,-27.886 -1.588,-31.201c-0.064,-3.316 5.66,-12.414 15.234,-7.178c9.569,5.252 115.552,74.508 133.305,86.45c17.753,11.918 46.477,28.363 64.684,62.298c18.201,33.93 15.769,53.847 38.449,86.968c22.692,33.121 39.351,38.223 65.19,40.532c25.832,2.303 49.885,-0.791 64.357,24.221c0,0 47.053,5.427 32.447,37.118c-0,-0 -42.458,-27.38 -93.244,3.798" style="fill:#db8c00;fill-rule:nonzero;stroke:#db8c00;stroke-width:2.08px;"/><path d="M191.668,166.27c-0,0 -150.354,-52.497 -158.876,-53.032c-8.539,-0.529 -19.678,-1.96 -16.811,10.994c2.862,12.954 14.955,48.431 69.029,54.888c54.073,6.451 95.908,4.88 95.908,4.88c0,0 -86.322,-10.284 -93.197,-11.093c-6.882,-0.808 -37.054,-7.282 -49.95,-24.518c-12.896,-17.235 -15.513,-29.962 -10.761,-28.874c4.747,1.081 164.658,46.755 164.658,46.755" style="fill:#db8c00;fill-rule:nonzero;stroke:#db8c00;stroke-width:2.08px;"/><path d="M193.669,195.128c-0,-0 -126.953,-2.531 -133.555,-0.815c-6.591,1.705 -15.386,3.386 -10.011,12.489c5.381,9.098 23.337,32.999 65.911,24.489c42.579,-8.504 73.897,-20.062 73.897,-20.062c0,-0 -67.97,13.594 -73.38,14.687c-5.409,1.094 -29.887,3.659 -43.934,-6.2c-14.036,-9.872 -19.184,-18.876 -15.316,-19.219c3.88,-0.355 136.388,-5.369 136.388,-5.369" style="fill:#db8c00;fill-rule:nonzero;stroke:#db8c00;stroke-width:2.08px;"/><path d="M200.341,215.429c-0,-0 -107.141,41.474 -112.068,45.173c-4.933,3.682 -11.721,8.126 -4.089,13.891c7.632,5.776 30.858,19.603 63.578,-2.129c32.72,-21.743 54.969,-42.166 54.969,-42.166c0,-0 -52.229,34.709 -56.382,37.483c-4.165,2.781 -23.768,13.338 -38.904,9.895c-15.141,-3.438 -22.54,-9.202 -19.422,-10.825c3.129,-1.629 112.318,-51.322 112.318,-51.322" style="fill:#db8c00;fill-rule:nonzero;stroke:#db8c00;stroke-width:2.08px;"/><path d="M209.339,241.959c0,0 -73.903,64.881 -76.782,69.308c-2.88,4.415 -7.027,9.976 0.808,12.373c7.836,2.39 30.574,6.666 50.473,-20.441c19.9,-27.106 31.76,-50.071 31.76,-50.071c0,-0 -31.754,43.277 -34.273,46.732c-2.524,3.455 -15.17,17.713 -28.363,19.399c-13.181,1.699 -20.812,-0.75 -18.788,-2.984c2.024,-2.227 75.165,-74.316 75.165,-74.316" style="fill:#db8c00;fill-rule:nonzero;stroke:#db8c00;stroke-width:2.08px;"/><path d="M217.814,261.527c0,0 -42.689,73.339 -43.847,77.748c-1.14,4.409 -3.013,10.092 4.049,9.906c7.073,-0.186 26.85,-2.926 35.709,-30.556c8.859,-27.63 12.268,-49.681 12.268,-49.681c-0,-0 -14.118,44.121 -15.246,47.628c-1.117,3.531 -2.536,9.633 -12.861,14.647c-10.337,4.991 -17.247,5.072 -16.2,2.705c1.053,-2.379 36.128,-72.397 36.128,-72.397" style="fill:#db8c00;fill-rule:nonzero;stroke:#db8c00;stroke-width:2.08px;"/><path d="M348.368,320.359c-0,-0 -50.438,5.27 -100.155,33.22c-30.98,17.433 -55.306,42.888 -72.082,80.796c-0,0 14.908,-112.475 172.237,-114.016" style="fill:#db8c00;fill-rule:nonzero;stroke:#db8c00;stroke-width:2.08px;"/></g></svg>